HIERARCHY
ROOT joint_0
{
	OFFSET 0.000000 0.000000 0.000000
	CHANNELS 6 Xposition Yposition Zposition Zrotation Yrotation Xrotation 
	JOINT joint_1
	{
		OFFSET 17.107422 0.519409 105.452026
		CHANNELS 3 Zrotation Yrotation Xrotation
		JOINT joint_2
		{
			OFFSET 6.110352 -1.434082 97.381958
			CHANNELS 3 Zrotation Yrotation Xrotation
			JOINT joint_3
			{
				OFFSET 6.305908 -1.739990 97.255005
				CHANNELS 3 Zrotation Yrotation Xrotation
				JOINT joint_4
				{
					OFFSET 22.074707 -0.492493 131.077026
					CHANNELS 3 Zrotation Yrotation Xrotation
					JOINT joint_5
					{
						OFFSET 34.162842 2.248718 78.700928
						CHANNELS 3 Zrotation Yrotation Xrotation
						End Site
						{
							OFFSET 0.000000 0.000000 0.000000
						}
					}
				}
				JOINT joint_6
				{
					OFFSET 17.059082 -28.836914 72.664062
					CHANNELS 3 Zrotation Yrotation Xrotation
					JOINT joint_7
					{
						OFFSET 22.639893 -134.803833 -24.691040
						CHANNELS 3 Zrotation Yrotation Xrotation
						JOINT joint_8
						{
							OFFSET 7.301758 -32.590759 -269.966064
							CHANNELS 3 Zrotation Yrotation Xrotation
							JOINT joint_9
							{
								OFFSET 35.581055 -8.517151 -242.326965
								CHANNELS 3 Zrotation Yrotation Xrotation
								End Site
								{
									OFFSET 0.000000 0.000000 0.000000
								}
							}
						}
					}
				}
				JOINT joint_10
				{
					OFFSET 7.819092 28.232056 74.432983
					CHANNELS 3 Zrotation Yrotation Xrotation
					JOINT joint_11
					{
						OFFSET -23.457031 135.063843 -22.406982
						CHANNELS 3 Zrotation Yrotation Xrotation
						JOINT joint_12
						{
							OFFSET 17.896973 48.138672 -267.131958
							CHANNELS 3 Zrotation Yrotation Xrotation
							JOINT joint_13
							{
								OFFSET 46.526367 17.567627 -239.975037
								CHANNELS 3 Zrotation Yrotation Xrotation
								End Site
								{
									OFFSET 0.000000 0.000000 0.000000
								}
							}
						}
					}
				}
			}
		}
	}
	JOINT joint_14
	{
		OFFSET 10.553467 -100.140320 -126.306030
		CHANNELS 3 Zrotation Yrotation Xrotation
		JOINT joint_15
		{
			OFFSET -52.094238 -9.565002 -436.052002
			CHANNELS 3 Zrotation Yrotation Xrotation
			JOINT joint_16
			{
				OFFSET -55.682617 -11.310120 -462.482971
				CHANNELS 3 Zrotation Yrotation Xrotation
				JOINT joint_17
				{
					OFFSET 179.119385 -5.942566 -84.087004
					CHANNELS 3 Zrotation Yrotation Xrotation
					End Site
					{
						OFFSET 0.000000 0.000000 0.000000
					}
				}
			}
		}
	}
	JOINT joint_18
	{
		OFFSET -22.235352 101.620483 -123.583984
		CHANNELS 3 Zrotation Yrotation Xrotation
		JOINT joint_19
		{
			OFFSET -38.118408 12.306396 -437.429016
			CHANNELS 3 Zrotation Yrotation Xrotation
			JOINT joint_20
			{
				OFFSET -51.789307 8.010498 -463.006004
				CHANNELS 3 Zrotation Yrotation Xrotation
				JOINT joint_21
				{
					OFFSET 170.088135 59.632324 -83.078003
					CHANNELS 3 Zrotation Yrotation Xrotation
					End Site
					{
						OFFSET 0.000000 0.000000 0.000000
					}
				}
			}
		}
	}
}
MOTION
Frames: 10
Frame Time: 0.016667
-3227.912109 883.490784 1143.360962 11.340363 5.842974 2.919556 2.106675 4.946876 -0.121481 2.231790 -0.915109 0.463154 2.285002 0.857582 0.161396 1.885289 0.071729 -4.558629 0.000000 0.000000 0.000000 1.206259 9.175299 -3.930295 -1.606544 11.011439 3.300098 0.664689 -9.750033 3.870803 0.000000 0.000000 0.000000 -3.642866 2.979209 -1.840175 0.407844 4.377357 3.124405 0.689852 1.215943 3.047247 0.000000 0.000000 0.000000 -2.019438 -21.618275 -4.223158 -2.304383 20.365107 -1.284722 -1.042388 -3.726958 -0.601384 0.000000 0.000000 0.000000 -7.301207 0.685600 8.047481 -5.915822 6.275552 -4.141289 -5.549161 15.967726 -8.192425 0.000000 0.000000 0.000000 
-3214.640869 875.403992 1140.046021 11.636998 5.921512 3.374338 2.281572 5.317549 -0.409603 2.501172 -1.021792 0.539537 2.572548 0.919206 0.175449 1.957238 0.280542 -4.794299 0.000000 0.000000 0.000000 1.728203 9.217769 -3.879859 -1.804992 11.109982 2.956409 0.680373 -10.365090 4.243294 0.000000 0.000000 0.000000 -3.186137 2.814929 -1.806799 0.395741 4.171082 3.411950 0.444946 0.142169 2.296573 0.000000 0.000000 0.000000 -2.288673 -21.117828 -3.995238 -2.655574 17.427324 -1.893576 -1.811414 -2.272081 -0.896327 0.000000 0.000000 0.000000 -7.109846 0.087983 8.289724 -5.601038 8.102785 -4.673078 -5.393110 15.691455 -8.006748 0.000000 0.000000 0.000000 
-3201.524170 866.482910 1135.448975 12.085646 6.079159 3.794394 2.470924 5.484310 -0.682087 2.768304 -1.081764 0.609533 2.854704 0.969163 0.179753 2.020769 0.449743 -5.014614 0.000000 0.000000 0.000000 2.391814 9.269335 -3.693805 -2.017847 11.204860 2.561964 0.689172 -10.846671 4.573790 0.000000 0.000000 0.000000 -3.021189 2.656571 -1.812004 0.395370 4.052554 3.955667 0.156019 -1.095870 1.510717 0.000000 0.000000 0.000000 -2.722490 -21.215125 -3.568034 -3.166365 17.471825 -2.324443 -2.400521 -2.779038 -1.177753 0.000000 0.000000 0.000000 -6.858237 -1.165429 8.664493 -5.161896 11.083463 -5.313683 -5.173204 14.449188 -7.439008 0.000000 0.000000 0.000000 
-3188.581543 856.785034 1129.480957 12.650289 6.261678 4.157203 2.671434 5.563863 -0.854219 3.047436 -1.135971 0.619748 3.145129 1.019275 0.175051 2.083509 0.561281 -5.234772 0.000000 0.000000 0.000000 3.205748 9.331119 -3.386136 -2.254477 11.301220 2.088681 0.693440 -11.279886 4.886821 0.000000 0.000000 0.000000 -3.067775 2.483560 -1.877971 0.384635 3.993684 4.785682 -0.207075 -2.510719 0.600052 0.000000 0.000000 0.000000 -3.304522 -21.687256 -2.910422 -3.835585 19.705854 -2.690614 -2.957655 -4.713115 -1.488594 0.000000 0.000000 0.000000 -6.590571 -2.893034 9.149538 -4.679497 14.991839 -5.930486 -4.868611 12.523350 -6.593513 0.000000 0.000000 0.000000 
-3175.846680 847.760681 1124.000000 13.214585 6.338675 4.444212 2.826977 5.787033 -0.932131 3.300391 -1.224683 0.625280 3.412156 1.078718 0.168738 2.148235 0.709599 -5.473591 0.000000 0.000000 0.000000 3.859594 9.266848 -3.068136 -2.432459 11.217862 1.491879 0.696436 -11.395754 4.990133 0.000000 0.000000 0.000000 -3.132116 2.325276 -1.975396 0.356412 3.912190 5.390323 -0.546164 -3.869332 -0.043452 0.000000 0.000000 0.000000 -3.817897 -22.067517 -2.344819 -4.456021 22.264833 -2.876993 -3.427368 -6.658500 -1.754126 0.000000 0.000000 0.000000 -6.369226 -4.672792 9.591613 -4.260135 19.114346 -6.497239 -4.464423 10.705953 -5.764753 0.000000 0.000000 0.000000 
-3163.438232 840.475281 1120.182983 13.664778 6.260691 4.566596 2.905063 6.226404 -0.816347 3.524444 -1.308308 0.627472 3.652025 1.153988 0.175836 2.214232 0.940978 -5.741147 0.000000 0.000000 0.000000 4.090604 8.947829 -2.783339 -2.450171 10.756609 0.668588 0.709966 -10.850537 4.745700 0.000000 0.000000 0.000000 -3.089994 2.219881 -2.064930 0.332782 3.756133 5.309211 -0.761223 -5.043218 -0.031964 0.000000 0.000000 0.000000 -4.067693 -22.203261 -2.067421 -4.877587 24.177582 -2.707722 -3.696354 -8.086239 -1.911154 0.000000 0.000000 0.000000 -6.112967 -6.368325 10.021633 -3.807018 23.251490 -7.110390 -3.799722 9.288312 -4.997954 0.000000 0.000000 0.000000 
-3151.346436 834.377380 1117.314941 14.045464 6.054790 4.519517 2.914833 6.842988 -0.480806 3.738086 -1.395291 0.588691 3.881923 1.236815 0.195190 2.277775 1.219346 -6.028814 0.000000 0.000000 0.000000 4.021767 8.432565 -2.458820 -2.326367 9.977267 -0.401817 0.727983 -9.714111 4.251641 0.000000 0.000000 0.000000 -3.004312 2.169155 -2.156853 0.314106 3.568284 4.733364 -0.894230 -6.147232 0.493122 0.000000 0.000000 0.000000 -4.141177 -22.222354 -1.946706 -5.183337 26.104492 -2.220530 -3.785601 -9.415436 -1.983696 0.000000 0.000000 0.000000 -5.845523 -8.080741 10.491288 -3.337155 27.617865 -7.743098 -2.814279 8.050172 -4.201077 0.000000 0.000000 0.000000 
-3139.129639 828.990540 1115.675049 14.344733 5.851661 4.432203 2.898296 7.395938 -0.096403 3.940420 -1.476582 0.511437 4.100070 1.293065 0.231586 2.313155 1.610315 -6.279134 0.000000 0.000000 0.000000 3.866729 7.922691 -2.196665 -2.196684 9.212389 -1.398952 0.713445 -8.560475 3.552794 0.000000 0.000000 0.000000 -2.905645 2.170996 -2.246635 0.265535 3.416086 4.058574 -1.039041 -7.170203 0.989227 0.000000 0.000000 0.000000 -4.141701 -22.013939 -1.776414 -5.408746 27.565358 -1.797120 -3.829996 -10.319546 -2.023235 0.000000 0.000000 0.000000 -5.860675 -9.584497 10.837455 -3.212684 31.458298 -8.453730 -2.150756 7.148064 -3.679973 0.000000 0.000000 0.000000 
-3126.467529 824.070374 1115.547974 14.570619 5.770992 4.434797 2.888666 7.636385 0.166499 4.105836 -1.512880 0.422018 4.277975 1.300095 0.293238 2.300520 2.195895 -6.454476 0.000000 0.000000 0.000000 3.782888 7.533094 -2.098670 -2.163613 8.694748 -2.020561 0.633562 -7.772049 2.504408 0.000000 0.000000 0.000000 -2.810516 2.211374 -2.313741 0.177854 3.319977 3.455233 -1.217859 -7.994160 1.120168 0.000000 0.000000 0.000000 -4.146687 -21.543163 -1.435380 -5.578541 28.208656 -1.755847 -3.948353 -10.617577 -2.077487 0.000000 0.000000 0.000000 -6.333240 -10.821579 10.953988 -3.631602 34.408556 -9.457636 -2.494000 6.512760 -3.643572 0.000000 0.000000 0.000000 
-3113.526123 819.782288 1116.808960 14.742581 5.776165 4.487134 2.875621 7.627522 0.357744 4.226872 -1.495674 0.325896 4.406482 1.272319 0.381728 2.248262 2.947548 -6.582440 0.000000 0.000000 0.000000 3.688990 7.178881 -2.103260 -2.197972 8.287268 -2.393656 0.476147 -7.122678 1.077470 0.000000 0.000000 0.000000 -2.710720 2.289109 -2.361248 0.071312 3.254698 2.772212 -1.382807 -8.622308 1.101699 0.000000 0.000000 0.000000 -4.128789 -20.879550 -1.004550 -5.681606 28.253113 -1.955419 -4.087544 -10.481332 -2.128584 0.000000 0.000000 0.000000 -7.095840 -11.936128 10.927718 -4.389143 36.799316 -10.790219 -3.685288 6.006061 -3.965514 0.000000 0.000000 0.000000 
